<?xml version="1.0" encoding="UTF-8"?>
<svg id="Layer_1" data-name="Layer 1" xmlns="http://www.w3.org/2000/svg" xmlns:xlink="http://www.w3.org/1999/xlink" viewBox="0 0 660 232">
  <defs>
    <radialGradient id="radial-gradient" cx="-1885.07" cy="654.99" fx="-1885.07" fy="654.99" r=".5" gradientTransform="translate(2488953 864489.85) scale(1320 -1320)" gradientUnits="userSpaceOnUse">
      <stop offset="0" stop-color="#fff"/>
      <stop offset="1" stop-color="#fff" stop-opacity="0"/>
    </radialGradient>
  </defs>
  <g id="Background">
    <rect y="-101.65" width="660" height="435" style="fill: #1d328d;"/>
  </g>
  <g id="Gradient">
    <rect y="-536.65" width="1320" height="870" style="fill: url(#radial-gradient); isolation: isolate; opacity: .25;"/>
  </g>
  <g>
    <g>
      <path d="M271.39,155.37c-1.51,0-2.92-.25-4.23-.76s-2.43-1.22-3.38-2.14-1.69-2.06-2.23-3.41-.81-2.85-.81-4.48c0-2.16.46-4.06,1.39-5.71.93-1.64,2.19-2.9,3.79-3.76,1.6-.87,3.42-1.3,5.45-1.3,2.26,0,4.24.54,5.96,1.63s2.96,2.58,3.74,4.48l-3.53,1.33c-.52-1.24-1.32-2.21-2.42-2.89-1.09-.69-2.34-1.03-3.75-1.03-.97,0-1.87.17-2.7.5s-1.56.8-2.18,1.41-1.1,1.37-1.45,2.29-.53,1.93-.53,3.05c0,2.24.65,4.01,1.94,5.31,1.29,1.3,2.93,1.96,4.91,1.96,1.41,0,2.66-.34,3.75-1.03,1.09-.69,1.9-1.65,2.42-2.89l3.53,1.33c-.77,1.91-2.02,3.41-3.74,4.5s-3.71,1.63-5.95,1.63Z" style="fill: #cefbf4;"/>
      <path d="M294.18,155.37c-2.03,0-3.85-.43-5.45-1.3s-2.87-2.13-3.79-3.78-1.39-3.55-1.39-5.71.46-4.06,1.39-5.71c.93-1.64,2.19-2.9,3.79-3.76,1.6-.87,3.42-1.3,5.45-1.3s3.83.43,5.43,1.3c1.6.86,2.87,2.12,3.79,3.76.93,1.65,1.39,3.55,1.39,5.71s-.46,4.06-1.39,5.71-2.19,2.91-3.79,3.78-3.41,1.3-5.43,1.3ZM289.27,149.9c1.29,1.31,2.93,1.96,4.91,1.96s3.62-.65,4.91-1.96,1.93-3.08,1.93-5.32-.65-3.98-1.94-5.29-2.93-1.96-4.9-1.96c-.97,0-1.87.17-2.7.5s-1.56.8-2.18,1.41-1.1,1.37-1.45,2.29-.53,1.93-.53,3.05c0,2.24.65,4.01,1.94,5.32Z" style="fill: #cefbf4;"/>
      <path d="M332.62,155.08h-3.76l-1.41-16.32-5.77,16.32h-2.42l-5.74-16.32-1.41,16.32h-3.78l1.7-20.99h5.33l5.1,14.3,5.13-14.3h5.35l1.68,20.99Z" style="fill: #cefbf4;"/>
      <path d="M361.02,155.08h-3.76l-1.41-16.32-5.77,16.32h-2.42l-5.74-16.32-1.41,16.32h-3.78l1.7-20.99h5.33l5.1,14.3,5.13-14.3h5.35l1.68,20.99Z" style="fill: #cefbf4;"/>
      <path d="M379.84,155.08l-1.61-4.56h-9.05l-1.61,4.56h-3.91l7.73-20.99h4.63l7.72,20.99h-3.9ZM370.32,147.3h6.77l-3.38-9.57-3.38,9.57Z" style="fill: #cefbf4;"/>
      <path d="M401.48,134.09h3.79v20.99h-4.31l-9.96-15.69v15.69h-3.78v-20.99h4.26l9.99,15.57v-15.57Z" style="fill: #cefbf4;"/>
      <path d="M411.07,155.08v-20.99h7.32c2.16,0,3.99.44,5.49,1.33,1.5.89,2.61,2.11,3.33,3.67s1.08,3.39,1.08,5.49c0,3.21-.85,5.77-2.54,7.66-1.7,1.89-4.15,2.84-7.36,2.84h-7.32ZM414.88,151.7h3.34c2.04,0,3.57-.62,4.58-1.85,1.01-1.24,1.52-2.99,1.52-5.27s-.51-4.03-1.52-5.27c-1.01-1.23-2.54-1.85-4.58-1.85h-3.34v14.24Z" style="fill: #cefbf4;"/>
      <path d="M432.09,148.81v-3.06h10.5v3.06h-10.5Z" style="fill: #cefbf4;"/>
      <path d="M451.58,151.7h6.81v3.38h-10.62v-20.99h3.81v17.61Z" style="fill: #cefbf4;"/>
      <path d="M461.98,155.08v-20.99h3.81v20.99h-3.81Z" style="fill: #cefbf4;"/>
      <path d="M485.84,134.09h3.79v20.99h-4.31l-9.96-15.69v15.69h-3.78v-20.99h4.26l9.99,15.57v-15.57Z" style="fill: #cefbf4;"/>
      <path d="M507.3,137.46h-8.01v5.46h7.09v3.34h-7.09v5.43h8.01v3.38h-11.87v-20.99h11.87v3.37Z" style="fill: #cefbf4;"/>
    </g>
    <g id="SvgjsG11447">
      <path d="M262.29,115.33v-34.34h11.65c10.66,0,16.18,6.91,16.18,17.17s-5.33,17.17-16.18,17.17h-11.65ZM268.01,110.2h5.72c7.11,0,10.26-4.54,10.26-12.04s-3.36-12.04-10.26-12.04h-5.72v24.08h0ZM312.62,115.73c-9.87,0-17.37-6.71-17.37-17.57s7.5-17.57,17.37-17.57,17.37,6.71,17.37,17.57c-.2,10.86-7.5,17.57-17.37,17.57ZM312.62,110.4c6.51,0,11.65-4.54,11.65-12.24s-5.13-12.24-11.65-12.24-11.65,4.54-11.65,12.24c0,7.7,5.13,12.24,11.65,12.24ZM356.24,80.99v5.13h-8.49v29.21h-5.72v-29.21h-8.49v-5.13h22.7Z" style="fill: #cefbf4;"/>
    </g>
    <g id="SvgjsG11448">
      <path d="M406.83,115.74h-7.2l-2.4-26.61-9,26.61h-4.8l-9-26.61-2.4,26.61h-7.4l3-35.22h10.41l7.6,22.21,7.8-22.21h10.41l3,35.22ZM438.05,115.74l-2.6-7.2h-14.81l-2.6,7.2h-7.4l13.01-35.22h9l13.01,35.22h-7.6ZM422.84,102.33h10.61l-5.2-15.01-5.4,15.01ZM471.67,115.74l-11.01-15.01h-2.6v15.01h-7.4v-35.22h7.4v13.81h2.4l11.01-13.81h9l-13.61,16.81,14.01,18.41h-9.21ZM506.69,86.92h-13.01v8h11.61v6.4h-11.61v8h13.01v6.4h-20.41v-35.22h20.41v6.4h0Z" style="fill: #cefbf4;"/>
    </g>
  </g>
  <g id="SvgjsG11446">
    <path d="M184.28,123.83h-25.99c-2.73,0-4.97,2.25-4.97,4.97v25.99c0,2.73,2.25,4.97,4.97,4.97h25.99c2.73,0,4.97-2.25,4.97-4.97v-25.99c0-2.73-2.25-4.97-4.97-4.97Z" style="fill: #fff;"/>
    <path d="M202.33,159.85h25.99c2.73,0,4.97-2.25,4.97-4.97v-25.99c0-2.73-2.25-4.97-4.97-4.97h-25.99c-2.73,0-4.97,2.25-4.97,4.97v25.91c-.08,2.81,2.17,5.05,4.97,5.05Z" style="fill: #fff;"/>
    <path d="M189.25,84.77c0-2.73-2.25-4.97-4.97-4.97h-25.99c-2.73,0-4.97,2.25-4.97,4.97v25.99c0,2.73,2.25,4.97,4.97,4.97h25.99c2.73,0,4.97-2.25,4.97-4.97v-25.99h0Z" style="fill: #fff;"/>
    <path d="M241.31,102.82v-25.99c0-2.73-2.25-4.97-4.97-4.97h-25.99c-2.73,0-4.97,2.25-4.97,4.97v25.99c0,2.73,2.25,4.97,4.97,4.97h25.99c2.73,0,4.97-2.25,4.97-4.97Z" style="fill: #fff;"/>
  </g>
</svg>